<svg xmlns="http://www.w3.org/2000/svg" width="256" height="384" viewBox="0 0 256 384" fill="none">
    <g id="Frame 2" clip-path="url(#clip0)">
        <rect width="256" height="384" fill="white" />
        <g id="blob 1">
            <path id="Vector"
                d="M63.2 34.5C66.9 40.4 65.5 50.7 67.9 58.4C70.2 66.2 76.2 71.5 76.7 76.8C77.3 82.2 72.3 87.6 67.7 93.8C63.1 100 58.9 107 53.4 107.5C48 108 41.3 102 36.2 97.5C31.1 92.9 27.4 89.8 26.2 86C24.9 82.2 25.9 77.7 21.6 71.7C17.3 65.7 7.6 58.3 7.7 54.2C7.9 50.2 17.8 49.5 25.1 45.2C32.5 40.9 37.2 33 44 29.9C50.7 26.8 59.5 28.5 63.2 34.5Z"
                fill="url(#paint0_linear)" />
        </g>
        <g id="blob 2" clip-path="url(#clip1)">
            <path id="Vector_2"
                d="M161.521 135.033C167.301 138.918 170.212 148.897 175.536 154.955C180.81 161.145 188.447 163.546 191.059 168.185C193.804 172.874 191.432 179.841 189.752 187.376C188.071 194.911 187.081 203.014 182.26 205.708C177.531 208.361 168.969 205.605 162.48 203.568C155.95 201.44 151.309 200.113 148.667 197.13C145.934 194.187 145.017 189.669 138.648 185.937C132.28 182.205 120.408 179.39 118.832 175.604C117.388 171.868 126.147 167.202 131.067 160.304C136.079 153.366 137.159 144.238 142.11 138.64C146.97 133.083 155.701 131.056 161.521 135.033Z"
                fill="url(#paint1_linear)" />
        </g>
        <g id="blob 3" clip-path="url(#clip2)">
            <path id="Vector_3"
                d="M75.1621 249.904C80.0079 254.906 80.78 265.272 84.7284 272.305C88.5999 279.456 95.5707 283.393 97.1617 288.473C98.8713 293.63 95.1033 299.952 91.8929 306.973C88.6825 313.993 86.0296 321.714 80.7538 323.346C75.5757 324.958 67.7747 320.482 61.8505 317.141C55.9056 313.702 51.6419 311.439 49.678 307.971C47.6164 304.525 47.6589 299.915 42.2054 294.94C36.7519 289.965 25.7254 284.744 24.9707 280.713C24.3347 276.758 33.8728 274.015 40.1193 268.292C46.4636 262.547 49.4184 253.842 55.4252 249.396C61.3343 244.971 70.2954 244.804 75.1621 249.904Z"
                fill="url(#paint2_linear)" />
        </g>
        <g id="blob 6" clip-path="url(#clip3)">
            <path id="Vector_4"
                d="M13.4509 152.193C18.2967 157.195 19.0688 167.561 23.0173 174.593C26.8888 181.745 33.8596 185.681 35.4506 190.762C37.1602 195.919 33.3922 202.24 30.1817 209.261C26.9713 216.282 24.3185 224.003 19.0426 225.635C13.8646 227.247 6.06352 222.771 0.13937 219.43C-5.80558 215.991 -10.0692 213.728 -12.0331 210.26C-14.0947 206.814 -14.0522 202.204 -19.5057 197.229C-24.9592 192.254 -35.9858 187.033 -36.7404 183.001C-37.3764 179.047 -27.8383 176.304 -21.5918 170.58C-15.2476 164.836 -12.2928 156.131 -6.28591 151.685C-0.376846 147.26 8.5843 147.093 13.4509 152.193Z"
                fill="url(#paint3_linear)" />
        </g>
        <g id="blob 4" clip-path="url(#clip4)">
            <path id="Vector_5"
                d="M176.038 293.42C180.506 288.078 190.735 286.226 197.316 281.564C204.024 276.966 207.21 269.622 212.096 267.509C217.046 265.27 223.727 268.356 231.045 270.815C238.363 273.274 246.319 275.106 248.494 280.182C250.638 285.163 247.002 293.389 244.298 299.63C241.499 305.902 239.694 310.379 236.451 312.694C233.239 315.105 228.65 315.545 224.273 321.488C219.895 327.432 215.855 338.944 211.924 340.116C208.058 341.162 204.333 331.962 197.988 326.348C191.612 320.639 182.646 318.611 177.597 313.101C172.578 307.687 171.475 298.793 176.038 293.42Z"
                fill="url(#paint4_linear)" />
        </g>
        <g id="blob 5" clip-path="url(#clip5)">
            <path id="Vector_6"
                d="M235.535 -36.9531C241.315 -33.0681 244.226 -23.0892 249.55 -17.0311C254.824 -10.8409 262.461 -8.43954 265.073 -3.80111C267.818 0.887992 265.446 7.85482 263.766 15.3898C262.085 22.9248 261.096 31.0279 256.274 33.7217C251.545 36.3748 242.983 33.6187 236.494 31.5821C229.964 29.4542 225.323 28.1271 222.681 25.1437C219.948 22.201 219.031 17.6833 212.662 13.951C206.294 10.2187 194.423 7.4038 192.846 3.61759C191.402 -0.11794 200.161 -4.78411 205.081 -11.6815C210.093 -18.6196 211.173 -27.7483 216.124 -33.3461C220.984 -38.9032 229.715 -40.9295 235.535 -36.9531Z"
                fill="url(#paint5_linear)" />
        </g>
        <g id="blob 7">
            <path id="Vector_7"
                d="M125.2 -42.5C128.9 -36.6 127.5 -26.3 129.9 -18.6C132.2 -10.8 138.2 -5.5 138.7 -0.199997C139.3 5.2 134.3 10.6 129.7 16.8C125.1 23 120.9 30 115.4 30.5C110 31 103.3 25 98.2 20.5C93.1 15.9 89.4 12.8 88.2 9C86.9 5.2 87.9 0.700001 83.6 -5.3C79.3 -11.3 69.6 -18.7 69.7 -22.8C69.9 -26.8 79.8 -27.5 87.1 -31.8C94.5 -36.1 99.2 -44 106 -47.1C112.7 -50.2 121.5 -48.5 125.2 -42.5Z"
                fill="url(#paint6_linear)" />
        </g>
    </g>
    <defs>
        <linearGradient id="paint0_linear" x1="7.69923" y1="107.529" x2="86.1158" y2="39.1176"
            gradientUnits="userSpaceOnUse">
            <stop stop-color="#223DF9" />
            <stop offset="1" stop-color="#223DF9" />
        </linearGradient>
        <linearGradient id="paint1_linear" x1="140.523" y1="224.323" x2="184.334" y2="129.93"
            gradientUnits="userSpaceOnUse">
            <stop stop-color="#223DF9" />
            <stop offset="1" stop-color="#223DF9" />
        </linearGradient>
        <linearGradient id="paint2_linear" x1="36.0578" y1="332.877" x2="98.5372" y2="249.656"
            gradientUnits="userSpaceOnUse">
            <stop stop-color="#223DF9" />
            <stop offset="1" stop-color="#223DF9" />
        </linearGradient>
        <linearGradient id="paint3_linear" x1="-25.6534" y1="235.166" x2="36.826" y2="151.945"
            gradientUnits="userSpaceOnUse">
            <stop stop-color="#223DF9" />
            <stop offset="1" stop-color="#223DF9" />
        </linearGradient>
        <linearGradient id="paint4_linear" x1="262.644" y1="323.637" x2="173.348" y2="270.199"
            gradientUnits="userSpaceOnUse">
            <stop stop-color="#223DF9" />
            <stop offset="1" stop-color="#223DF9" />
        </linearGradient>
        <linearGradient id="paint5_linear" x1="214.537" y1="52.3367" x2="258.348" y2="-42.0554"
            gradientUnits="userSpaceOnUse">
            <stop stop-color="#223DF9" />
            <stop offset="1" stop-color="#223DF9" />
        </linearGradient>
        <linearGradient id="paint6_linear" x1="69.6992" y1="30.5293" x2="148.116" y2="-37.8824"
            gradientUnits="userSpaceOnUse">
            <stop stop-color="#223DF9" />
            <stop offset="1" stop-color="#223DF9" />
        </linearGradient>
        <clipPath id="clip0">
            <rect width="256" height="384" fill="white" />
        </clipPath>
        <clipPath id="clip1">
            <rect width="100" height="100" fill="white" transform="translate(90.9859 151.66) rotate(-24)" />
        </clipPath>
        <clipPath id="clip2">
            <rect width="100" height="100" fill="white" transform="translate(2.71114 251.502) rotate(-12)" />
        </clipPath>
        <clipPath id="clip3">
            <rect width="100" height="100" fill="white" transform="translate(-59 153.791) rotate(-12)" />
        </clipPath>
        <clipPath id="clip4">
            <rect width="100" height="100" fill="white" transform="translate(185.201 365.307) rotate(-108)" />
        </clipPath>
        <clipPath id="clip5">
            <rect width="100" height="100" fill="white" transform="translate(165 -20.3264) rotate(-24)" />
        </clipPath>
    </defs>
</svg>