<svg xmlns="http://www.w3.org/2000/svg" width="256" height="384" viewBox="0 0 256 384" fill="none">
    <g id="Frame 4" clip-path="url(#clip0)">
        <rect width="256" height="384" fill="white" />
        <g id="Octicons-git-branch 1">
            <path id="Vector"
                d="M94.6 259.562C84.3937 259.562 76.2 267.745 76.2 277.938C76.2 284.685 79.9375 290.57 85.4 293.729V296.312C85.4 305.5 76.2 314.688 67 314.688C59.3812 314.688 53.3437 316.267 48.6 318.851V275.354C54.0625 272.195 57.8 266.31 57.8 259.562C57.8 249.37 49.6062 241.188 39.4 241.188C29.1937 241.188 21 249.37 21 259.562C21 266.31 24.7375 272.195 30.2 275.354V335.503C24.7375 338.661 21 344.547 21 351.294C21 361.486 29.1937 369.669 39.4 369.669C49.6062 369.669 57.8 361.486 57.8 351.294C57.8 346.413 55.9312 342.106 52.9125 338.805C55.6437 335.503 59.9562 332.919 67 332.919C85.4 332.919 103.8 314.544 103.8 296.169V293.585C109.262 290.427 113 284.541 113 277.794C113 267.602 104.806 259.419 94.6 259.419V259.562ZM39.4 250.375C44.4312 250.375 48.6 254.538 48.6 259.562C48.6 264.587 44.4312 268.75 39.4 268.75C34.3687 268.75 30.2 264.587 30.2 259.562C30.2 254.538 34.3687 250.375 39.4 250.375ZM39.4 360.625C34.3687 360.625 30.2 356.462 30.2 351.438C30.2 346.413 34.3687 342.25 39.4 342.25C44.4312 342.25 48.6 346.413 48.6 351.438C48.6 356.462 44.4312 360.625 39.4 360.625ZM94.6 287.125C89.5687 287.125 85.4 282.962 85.4 277.938C85.4 272.913 89.5687 268.75 94.6 268.75C99.6312 268.75 103.8 272.913 103.8 277.938C103.8 282.962 99.6312 287.125 94.6 287.125Z"
                fill="#223DF9" />
        </g>
        <g id="Octicons-git-branch 2">
            <path id="Vector_2"
                d="M149.6 185.562C139.394 185.562 131.2 193.745 131.2 203.938C131.2 210.685 134.938 216.57 140.4 219.729V222.312C140.4 231.5 131.2 240.688 122 240.688C114.381 240.688 108.344 242.267 103.6 244.851V201.354C109.062 198.195 112.8 192.31 112.8 185.562C112.8 175.37 104.606 167.188 94.4 167.188C84.1937 167.188 76 175.37 76 185.562C76 192.31 79.7375 198.195 85.2 201.354V261.503C79.7375 264.661 76 270.547 76 277.294C76 287.486 84.1937 295.669 94.4 295.669C104.606 295.669 112.8 287.486 112.8 277.294C112.8 272.413 110.931 268.106 107.912 264.805C110.644 261.503 114.956 258.919 122 258.919C140.4 258.919 158.8 240.544 158.8 222.169V219.585C164.262 216.427 168 210.541 168 203.794C168 193.602 159.806 185.419 149.6 185.419V185.562ZM94.4 176.375C99.4312 176.375 103.6 180.538 103.6 185.562C103.6 190.587 99.4312 194.75 94.4 194.75C89.3687 194.75 85.2 190.587 85.2 185.562C85.2 180.538 89.3687 176.375 94.4 176.375ZM94.4 286.625C89.3687 286.625 85.2 282.462 85.2 277.438C85.2 272.413 89.3687 268.25 94.4 268.25C99.4312 268.25 103.6 272.413 103.6 277.438C103.6 282.462 99.4312 286.625 94.4 286.625ZM149.6 213.125C144.569 213.125 140.4 208.962 140.4 203.938C140.4 198.913 144.569 194.75 149.6 194.75C154.631 194.75 158.8 198.913 158.8 203.938C158.8 208.962 154.631 213.125 149.6 213.125Z"
                fill="#223DF9" />
        </g>
        <path id="Vector_3"
            d="M204.6 112.375C194.394 112.375 186.2 120.558 186.2 130.75C186.2 137.497 189.938 143.383 195.4 146.541V149.125C195.4 158.312 186.2 167.5 177 167.5C169.381 167.5 163.344 169.079 158.6 171.663V128.166C164.062 125.008 167.8 119.122 167.8 112.375C167.8 102.183 159.606 94 149.4 94C139.194 94 131 102.183 131 112.375C131 119.122 134.737 125.008 140.2 128.166V188.315C134.737 191.474 131 197.359 131 204.106C131 214.299 139.194 222.481 149.4 222.481C159.606 222.481 167.8 214.299 167.8 204.106C167.8 199.226 165.931 194.919 162.912 191.617C165.644 188.315 169.956 185.731 177 185.731C195.4 185.731 213.8 167.356 213.8 148.981V146.397C219.262 143.239 223 137.354 223 130.606C223 120.414 214.806 112.231 204.6 112.231V112.375ZM149.4 103.188C154.431 103.188 158.6 107.351 158.6 112.375C158.6 117.399 154.431 121.562 149.4 121.562C144.369 121.562 140.2 117.399 140.2 112.375C140.2 107.351 144.369 103.188 149.4 103.188ZM149.4 213.438C144.369 213.438 140.2 209.274 140.2 204.25C140.2 199.226 144.369 195.062 149.4 195.062C154.431 195.062 158.6 199.226 158.6 204.25C158.6 209.274 154.431 213.438 149.4 213.438ZM204.6 139.938C199.569 139.938 195.4 135.774 195.4 130.75C195.4 125.726 199.569 121.562 204.6 121.562C209.631 121.562 213.8 125.726 213.8 130.75C213.8 135.774 209.631 139.938 204.6 139.938Z"
            fill="#223DF9" />
        <path id="Vector_4"
            d="M94.6 167.375C84.3937 167.375 76.2 175.558 76.2 185.75C76.2 192.497 79.9375 198.383 85.4 201.541V204.125C85.4 213.312 76.2 222.5 67 222.5C59.3813 222.5 53.3437 224.079 48.6 226.663V183.166C54.0625 180.008 57.8 174.122 57.8 167.375C57.8 157.183 49.6062 149 39.4 149C29.1937 149 21 157.183 21 167.375C21 174.122 24.7375 180.008 30.2 183.166V243.315C24.7375 246.474 21 252.359 21 259.106C21 269.299 29.1937 277.481 39.4 277.481C49.6062 277.481 57.8 269.299 57.8 259.106C57.8 254.226 55.9312 249.919 52.9125 246.617C55.6437 243.315 59.9563 240.731 67 240.731C85.4 240.731 103.8 222.356 103.8 203.981V201.397C109.262 198.239 113 192.354 113 185.606C113 175.414 104.806 167.231 94.6 167.231V167.375ZM39.4 158.188C44.4312 158.188 48.6 162.351 48.6 167.375C48.6 172.399 44.4312 176.562 39.4 176.562C34.3687 176.562 30.2 172.399 30.2 167.375C30.2 162.351 34.3687 158.188 39.4 158.188ZM39.4 268.438C34.3687 268.438 30.2 264.274 30.2 259.25C30.2 254.226 34.3687 250.062 39.4 250.062C44.4312 250.062 48.6 254.226 48.6 259.25C48.6 264.274 44.4312 268.438 39.4 268.438ZM94.6 194.938C89.5687 194.938 85.4 190.774 85.4 185.75C85.4 180.726 89.5687 176.562 94.6 176.562C99.6312 176.562 103.8 180.726 103.8 185.75C103.8 190.774 99.6312 194.938 94.6 194.938Z"
            fill="#223DF9" />
        <path id="Vector_5"
            d="M94.6 75.375C84.3937 75.375 76.2 83.5576 76.2 93.75C76.2 100.497 79.9375 106.383 85.4 109.541V112.125C85.4 121.312 76.2 130.5 67 130.5C59.3813 130.5 53.3437 132.079 48.6 134.663V91.166C54.0625 88.0078 57.8 82.1221 57.8 75.375C57.8 65.1826 49.6062 57 39.4 57C29.1937 57 21 65.1826 21 75.375C21 82.1221 24.7375 88.0078 30.2 91.166V151.315C24.7375 154.474 21 160.359 21 167.106C21 177.299 29.1937 185.481 39.4 185.481C49.6062 185.481 57.8 177.299 57.8 167.106C57.8 162.226 55.9312 157.919 52.9125 154.617C55.6437 151.315 59.9563 148.731 67 148.731C85.4 148.731 103.8 130.356 103.8 111.981V109.397C109.262 106.239 113 100.354 113 93.6064C113 83.4141 104.806 75.2314 94.6 75.2314V75.375ZM39.4 66.1875C44.4312 66.1875 48.6 70.3506 48.6 75.375C48.6 80.3994 44.4312 84.5625 39.4 84.5625C34.3687 84.5625 30.2 80.3994 30.2 75.375C30.2 70.3506 34.3687 66.1875 39.4 66.1875ZM39.4 176.438C34.3687 176.438 30.2 172.274 30.2 167.25C30.2 162.226 34.3687 158.062 39.4 158.062C44.4312 158.062 48.6 162.226 48.6 167.25C48.6 172.274 44.4312 176.438 39.4 176.438ZM94.6 102.938C89.5687 102.938 85.4 98.7744 85.4 93.75C85.4 88.7256 89.5687 84.5625 94.6 84.5625C99.6312 84.5625 103.8 88.7256 103.8 93.75C103.8 98.7744 99.6312 102.938 94.6 102.938Z"
            fill="#223DF9" />
        <path id="Vector_6"
            d="M94.6 -16.625C84.3937 -16.625 76.2 -8.44238 76.2 1.75C76.2 8.49707 79.9375 14.3828 85.4 17.541V20.125C85.4 29.3125 76.2 38.5 67 38.5C59.3813 38.5 53.3437 40.0791 48.6 42.6631V-0.833984C54.0625 -3.99219 57.8 -9.87793 57.8 -16.625C57.8 -26.8174 49.6062 -35 39.4 -35C29.1937 -35 21 -26.8174 21 -16.625C21 -9.87793 24.7375 -3.99219 30.2 -0.833984V59.3154C24.7375 62.4736 21 68.3594 21 75.1064C21 85.2988 29.1937 93.4814 39.4 93.4814C49.6062 93.4814 57.8 85.2988 57.8 75.1064C57.8 70.2256 55.9312 65.9189 52.9125 62.6172C55.6437 59.3154 59.9563 56.7314 67 56.7314C85.4 56.7314 103.8 38.3564 103.8 19.9814V17.3975C109.262 14.2393 113 8.35352 113 1.60645C113 -8.58594 104.806 -16.7686 94.6 -16.7686V-16.625ZM39.4 -25.8125C44.4312 -25.8125 48.6 -21.6494 48.6 -16.625C48.6 -11.6006 44.4312 -7.4375 39.4 -7.4375C34.3687 -7.4375 30.2 -11.6006 30.2 -16.625C30.2 -21.6494 34.3687 -25.8125 39.4 -25.8125ZM39.4 84.4375C34.3687 84.4375 30.2 80.2744 30.2 75.25C30.2 70.2256 34.3687 66.0625 39.4 66.0625C44.4312 66.0625 48.6 70.2256 48.6 75.25C48.6 80.2744 44.4312 84.4375 39.4 84.4375ZM94.6 10.9375C89.5687 10.9375 85.4 6.77441 85.4 1.75C85.4 -3.27441 89.5687 -7.4375 94.6 -7.4375C99.6312 -7.4375 103.8 -3.27441 103.8 1.75C103.8 6.77441 99.6312 10.9375 94.6 10.9375Z"
            fill="#223DF9" />
    </g>
    <defs>
        <clipPath id="clip0">
            <rect width="256" height="384" fill="white" />
        </clipPath>
    </defs>
</svg>