<svg xmlns="http://www.w3.org/2000/svg" width="256" height="384" viewBox="0 0 256 384" fill="none">
    <g id="Frame 1" clip-path="url(#clip0)">
        <rect width="256" height="384" fill="white" />
        <g id="wave (1) 1" clip-path="url(#clip1)">
            <path id="Vector"
                d="M128 0L132.24 4.56C136.8 9.14667 144.8 18.4 136.56 27.4667C128 36.56 102.4 45.6 85.36 54.9333C68 64 60 73.0667 64 82.4C68 91.44 85.6 100.533 106.64 109.6C128 118.853 153.6 128 140.8 137.067C128 146.293 76.8 155.467 76.8 164.533C76.8 173.707 128 182.933 140.8 192C153.6 201.147 128 210.4 110.96 219.467C93.6 228.56 85.6 237.6 98.16 246.933C111.2 256 144.8 265.067 153.6 274.4C162.4 283.44 144.8 292.533 149.36 301.6C153.6 310.853 179.2 320 170.64 329.067C162.4 338.293 119.2 347.467 110.96 356.533C102.4 365.707 128 374.933 140.8 379.467L153.6 384L1.52588e-05 384V379.44C1.52588e-05 374.853 1.52588e-05 365.6 1.52588e-05 356.533C1.52588e-05 347.44 1.52588e-05 338.4 1.52588e-05 329.067C1.52588e-05 320 1.52588e-05 310.933 1.52588e-05 301.6C1.52588e-05 292.56 1.52588e-05 283.467 1.52588e-05 274.4C1.52588e-05 265.147 1.52588e-05 256 1.52588e-05 246.933C1.52588e-05 237.707 1.52588e-05 228.533 1.52588e-05 219.467C1.52588e-05 210.293 1.52588e-05 201.067 1.52588e-05 192C1.52588e-05 182.853 1.52588e-05 173.6 1.52588e-05 164.533C1.52588e-05 155.44 1.52588e-05 146.4 1.52588e-05 137.067C1.52588e-05 128 1.52588e-05 118.933 1.52588e-05 109.6C1.52588e-05 100.56 1.52588e-05 91.4667 1.52588e-05 82.4C1.52588e-05 73.1467 1.52588e-05 64 1.52588e-05 54.9333C1.52588e-05 45.7067 1.52588e-05 36.5333 1.52588e-05 27.4667C1.52588e-05 18.2933 1.52588e-05 9.06667 1.52588e-05 4.53333V0L128 0Z"
                fill="#223DF9" />
        </g>
    </g>
    <defs>
        <clipPath id="clip0">
            <rect width="256" height="384" fill="white" />
        </clipPath>
        <clipPath id="clip1">
            <rect width="384" height="256" fill="white" transform="translate(256) rotate(90)" />
        </clipPath>
    </defs>
</svg>