<svg xmlns="http://www.w3.org/2000/svg" width="256" height="384" viewBox="0 0 256 384" fill="none">
    <g clip-path="url(#clip0)">
        <rect width="256" height="384" fill="white" />
        <g clip-path="url(#clip1)">
            <path
                d="M65.8808 0L66.2743 4.56C66.6976 9.14667 67.4401 18.4 66.6753 27.4667C65.8808 36.56 63.5046 45.6 61.923 54.9333C60.3117 64 59.5691 73.0667 59.9404 82.4C60.3117 91.44 61.9453 100.533 63.8982 109.6C65.8808 118.853 68.2569 128 67.0689 137.067C65.8808 146.293 61.1285 155.467 61.1285 164.533C61.1285 173.707 65.8808 182.933 67.0689 192C68.2569 201.147 65.8808 210.4 64.2992 219.467C62.6878 228.56 61.9453 237.6 63.1111 246.933C64.3214 256 67.4401 265.067 68.2569 274.4C69.0737 283.44 67.4401 292.533 67.8634 301.6C68.2569 310.853 70.6331 320 69.8386 329.067C69.0737 338.293 65.064 347.467 64.2992 356.533C63.5046 365.707 65.8808 374.933 67.0689 379.467L68.2569 384H54V379.44C54 374.853 54 365.6 54 356.533C54 347.44 54 338.4 54 329.067C54 320 54 310.933 54 301.6C54 292.56 54 283.467 54 274.4C54 265.147 54 256 54 246.933C54 237.707 54 228.533 54 219.467C54 210.293 54 201.067 54 192C54 182.853 54 173.6 54 164.533C54 155.44 54 146.4 54 137.067C54 128 54 118.933 54 109.6C54 100.56 54 91.4667 54 82.4C54 73.1467 54 64 54 54.9333C54 45.7067 54 36.5333 54 27.4667C54 18.2933 54 9.06667 54 4.53333V0L65.8808 0Z"
                fill="#223DF9" />
            <path
                d="M42.1192 0L41.7257 4.56C41.3024 9.14667 40.5599 18.4 41.3247 27.4667C42.1192 36.56 44.4954 45.6 46.077 54.9333C47.6883 64 48.4309 73.0667 48.0596 82.4C47.6883 91.44 46.0547 100.533 44.1018 109.6C42.1192 118.853 39.7431 128 40.9311 137.067C42.1192 146.293 46.8715 155.467 46.8715 164.533C46.8715 173.707 42.1192 182.933 40.9311 192C39.7431 201.147 42.1192 210.4 43.7008 219.467C45.3122 228.56 46.0547 237.6 44.8889 246.933C43.6786 256 40.5599 265.067 39.7431 274.4C38.9263 283.44 40.5599 292.533 40.1366 301.6C39.7431 310.853 37.3669 320 38.1614 329.067C38.9263 338.293 42.936 347.467 43.7008 356.533C44.4954 365.707 42.1192 374.933 40.9311 379.467L39.7431 384H54V379.44C54 374.853 54 365.6 54 356.533C54 347.44 54 338.4 54 329.067C54 320 54 310.933 54 301.6C54 292.56 54 283.467 54 274.4C54 265.147 54 256 54 246.933C54 237.707 54 228.533 54 219.467C54 210.293 54 201.067 54 192C54 182.853 54 173.6 54 164.533C54 155.44 54 146.4 54 137.067C54 128 54 118.933 54 109.6C54 100.56 54 91.4667 54 82.4C54 73.1467 54 64 54 54.9333C54 45.7067 54 36.5333 54 27.4667C54 18.2933 54 9.06667 54 4.53333V0L42.1192 0Z"
                fill="#223DF9" />
            <path
                d="M17.8808 0L18.2743 4.56C18.6976 9.14667 19.4401 18.4 18.6753 27.4667C17.8808 36.56 15.5046 45.6 13.923 54.9333C12.3117 64 11.5691 73.0667 11.9404 82.4C12.3117 91.44 13.9453 100.533 15.8982 109.6C17.8808 118.853 20.2569 128 19.0689 137.067C17.8808 146.293 13.1285 155.467 13.1285 164.533C13.1285 173.707 17.8808 182.933 19.0689 192C20.2569 201.147 17.8808 210.4 16.2992 219.467C14.6878 228.56 13.9453 237.6 15.1111 246.933C16.3214 256 19.4401 265.067 20.2569 274.4C21.0737 283.44 19.4401 292.533 19.8634 301.6C20.2569 310.853 22.6331 320 21.8386 329.067C21.0737 338.293 17.064 347.467 16.2992 356.533C15.5046 365.707 17.8808 374.933 19.0689 379.467L20.2569 384H6L6 379.44C6 374.853 6 365.6 6 356.533C6 347.44 6 338.4 6 329.067C6 320 6 310.933 6 301.6C6 292.56 6 283.467 6 274.4C6 265.147 6 256 6 246.933C6 237.707 6 228.533 6 219.467C6 210.293 6 201.067 6 192C6 182.853 6 173.6 6 164.533C6 155.44 6 146.4 6 137.067C6 128 6 118.933 6 109.6C6 100.56 6 91.4667 6 82.4C6 73.1467 6 64 6 54.9333C6 45.7067 6 36.5333 6 27.4667C6 18.2933 6 9.06667 6 4.53333V0L17.8808 0Z"
                fill="#223DF9" />
            <path
                d="M-5.88079 0L-6.27434 4.56C-6.69759 9.14667 -7.44014 18.4 -6.67532 27.4667C-5.88079 36.56 -3.50463 45.6 -1.923 54.9333C-0.311668 64 0.430881 73.0667 0.0596056 82.4C-0.311669 91.44 -1.94528 100.533 -3.89818 109.6C-5.88079 118.853 -8.25695 128 -7.06887 137.067C-5.88079 146.293 -1.12847 155.467 -1.12847 164.533C-1.12847 173.707 -5.88079 182.933 -7.06887 192C-8.25695 201.147 -5.88079 210.4 -4.29916 219.467C-2.68783 228.56 -1.94528 237.6 -3.11108 246.933C-4.32143 256 -7.44014 265.067 -8.25695 274.4C-9.07375 283.44 -7.44014 292.533 -7.86339 301.6C-8.25695 310.853 -10.6331 320 -9.83858 329.067C-9.07375 338.293 -5.06398 347.467 -4.29916 356.533C-3.50463 365.707 -5.88079 374.933 -7.06887 379.467L-8.25695 384H6V379.44C6 374.853 6 365.6 6 356.533C6 347.44 6 338.4 6 329.067C6 320 6 310.933 6 301.6C6 292.56 6 283.467 6 274.4C6 265.147 6 256 6 246.933C6 237.707 6 228.533 6 219.467C6 210.293 6 201.067 6 192C6 182.853 6 173.6 6 164.533C6 155.44 6 146.4 6 137.067C6 128 6 118.933 6 109.6C6 100.56 6 91.4667 6 82.4C6 73.1467 6 64 6 54.9333C6 45.7067 6 36.5333 6 27.4667C6 18.2933 6 9.06667 6 4.53333V0L-5.88079 0Z"
                fill="#223DF9" />
            <path
                d="M161.881 0L162.274 4.56C162.698 9.14667 163.44 18.4 162.675 27.4667C161.881 36.56 159.505 45.6 157.923 54.9333C156.312 64 155.569 73.0667 155.94 82.4C156.312 91.44 157.945 100.533 159.898 109.6C161.881 118.853 164.257 128 163.069 137.067C161.881 146.293 157.128 155.467 157.128 164.533C157.128 173.707 161.881 182.933 163.069 192C164.257 201.147 161.881 210.4 160.299 219.467C158.688 228.56 157.945 237.6 159.111 246.933C160.321 256 163.44 265.067 164.257 274.4C165.074 283.44 163.44 292.533 163.863 301.6C164.257 310.853 166.633 320 165.839 329.067C165.074 338.293 161.064 347.467 160.299 356.533C159.505 365.707 161.881 374.933 163.069 379.467L164.257 384H150V379.44C150 374.853 150 365.6 150 356.533C150 347.44 150 338.4 150 329.067C150 320 150 310.933 150 301.6C150 292.56 150 283.467 150 274.4C150 265.147 150 256 150 246.933C150 237.707 150 228.533 150 219.467C150 210.293 150 201.067 150 192C150 182.853 150 173.6 150 164.533C150 155.44 150 146.4 150 137.067C150 128 150 118.933 150 109.6C150 100.56 150 91.4667 150 82.4C150 73.1467 150 64 150 54.9333C150 45.7067 150 36.5333 150 27.4667C150 18.2933 150 9.06667 150 4.53333V0L161.881 0Z"
                fill="#223DF9" />
            <path
                d="M138.119 0L137.726 4.56C137.302 9.14667 136.56 18.4 137.325 27.4667C138.119 36.56 140.495 45.6 142.077 54.9333C143.688 64 144.431 73.0667 144.06 82.4C143.688 91.44 142.055 100.533 140.102 109.6C138.119 118.853 135.743 128 136.931 137.067C138.119 146.293 142.872 155.467 142.872 164.533C142.872 173.707 138.119 182.933 136.931 192C135.743 201.147 138.119 210.4 139.701 219.467C141.312 228.56 142.055 237.6 140.889 246.933C139.679 256 136.56 265.067 135.743 274.4C134.926 283.44 136.56 292.533 136.137 301.6C135.743 310.853 133.367 320 134.161 329.067C134.926 338.293 138.936 347.467 139.701 356.533C140.495 365.707 138.119 374.933 136.931 379.467L135.743 384H150V379.44C150 374.853 150 365.6 150 356.533C150 347.44 150 338.4 150 329.067C150 320 150 310.933 150 301.6C150 292.56 150 283.467 150 274.4C150 265.147 150 256 150 246.933C150 237.707 150 228.533 150 219.467C150 210.293 150 201.067 150 192C150 182.853 150 173.6 150 164.533C150 155.44 150 146.4 150 137.067C150 128 150 118.933 150 109.6C150 100.56 150 91.4667 150 82.4C150 73.1467 150 64 150 54.9333C150 45.7067 150 36.5333 150 27.4667C150 18.2933 150 9.06667 150 4.53333V0L138.119 0Z"
                fill="#223DF9" />
            <path
                d="M209.881 0L210.274 4.56C210.698 9.14667 211.44 18.4 210.675 27.4667C209.881 36.56 207.505 45.6 205.923 54.9333C204.312 64 203.569 73.0667 203.94 82.4C204.312 91.44 205.945 100.533 207.898 109.6C209.881 118.853 212.257 128 211.069 137.067C209.881 146.293 205.128 155.467 205.128 164.533C205.128 173.707 209.881 182.933 211.069 192C212.257 201.147 209.881 210.4 208.299 219.467C206.688 228.56 205.945 237.6 207.111 246.933C208.321 256 211.44 265.067 212.257 274.4C213.074 283.44 211.44 292.533 211.863 301.6C212.257 310.853 214.633 320 213.839 329.067C213.074 338.293 209.064 347.467 208.299 356.533C207.505 365.707 209.881 374.933 211.069 379.467L212.257 384H198V379.44C198 374.853 198 365.6 198 356.533C198 347.44 198 338.4 198 329.067C198 320 198 310.933 198 301.6C198 292.56 198 283.467 198 274.4C198 265.147 198 256 198 246.933C198 237.707 198 228.533 198 219.467C198 210.293 198 201.067 198 192C198 182.853 198 173.6 198 164.533C198 155.44 198 146.4 198 137.067C198 128 198 118.933 198 109.6C198 100.56 198 91.4667 198 82.4C198 73.1467 198 64 198 54.9333C198 45.7067 198 36.5333 198 27.4667C198 18.2933 198 9.06667 198 4.53333V0L209.881 0Z"
                fill="#223DF9" />
            <path
                d="M186.119 0L185.726 4.56C185.302 9.14667 184.56 18.4 185.325 27.4667C186.119 36.56 188.495 45.6 190.077 54.9333C191.688 64 192.431 73.0667 192.06 82.4C191.688 91.44 190.055 100.533 188.102 109.6C186.119 118.853 183.743 128 184.931 137.067C186.119 146.293 190.872 155.467 190.872 164.533C190.872 173.707 186.119 182.933 184.931 192C183.743 201.147 186.119 210.4 187.701 219.467C189.312 228.56 190.055 237.6 188.889 246.933C187.679 256 184.56 265.067 183.743 274.4C182.926 283.44 184.56 292.533 184.137 301.6C183.743 310.853 181.367 320 182.161 329.067C182.926 338.293 186.936 347.467 187.701 356.533C188.495 365.707 186.119 374.933 184.931 379.467L183.743 384H198V379.44C198 374.853 198 365.6 198 356.533C198 347.44 198 338.4 198 329.067C198 320 198 310.933 198 301.6C198 292.56 198 283.467 198 274.4C198 265.147 198 256 198 246.933C198 237.707 198 228.533 198 219.467C198 210.293 198 201.067 198 192C198 182.853 198 173.6 198 164.533C198 155.44 198 146.4 198 137.067C198 128 198 118.933 198 109.6C198 100.56 198 91.4667 198 82.4C198 73.1467 198 64 198 54.9333C198 45.7067 198 36.5333 198 27.4667C198 18.2933 198 9.06667 198 4.53333V0L186.119 0Z"
                fill="#223DF9" />
            <path
                d="M257.881 0L258.274 4.56C258.698 9.14667 259.44 18.4 258.675 27.4667C257.881 36.56 255.505 45.6 253.923 54.9333C252.312 64 251.569 73.0667 251.94 82.4C252.312 91.44 253.945 100.533 255.898 109.6C257.881 118.853 260.257 128 259.069 137.067C257.881 146.293 253.128 155.467 253.128 164.533C253.128 173.707 257.881 182.933 259.069 192C260.257 201.147 257.881 210.4 256.299 219.467C254.688 228.56 253.945 237.6 255.111 246.933C256.321 256 259.44 265.067 260.257 274.4C261.074 283.44 259.44 292.533 259.863 301.6C260.257 310.853 262.633 320 261.839 329.067C261.074 338.293 257.064 347.467 256.299 356.533C255.505 365.707 257.881 374.933 259.069 379.467L260.257 384H246V379.44C246 374.853 246 365.6 246 356.533C246 347.44 246 338.4 246 329.067C246 320 246 310.933 246 301.6C246 292.56 246 283.467 246 274.4C246 265.147 246 256 246 246.933C246 237.707 246 228.533 246 219.467C246 210.293 246 201.067 246 192C246 182.853 246 173.6 246 164.533C246 155.44 246 146.4 246 137.067C246 128 246 118.933 246 109.6C246 100.56 246 91.4667 246 82.4C246 73.1467 246 64 246 54.9333C246 45.7067 246 36.5333 246 27.4667C246 18.2933 246 9.06667 246 4.53333V0L257.881 0Z"
                fill="#223DF9" />
            <path
                d="M234.119 0L233.726 4.56C233.302 9.14667 232.56 18.4 233.325 27.4667C234.119 36.56 236.495 45.6 238.077 54.9333C239.688 64 240.431 73.0667 240.06 82.4C239.688 91.44 238.055 100.533 236.102 109.6C234.119 118.853 231.743 128 232.931 137.067C234.119 146.293 238.872 155.467 238.872 164.533C238.872 173.707 234.119 182.933 232.931 192C231.743 201.147 234.119 210.4 235.701 219.467C237.312 228.56 238.055 237.6 236.889 246.933C235.679 256 232.56 265.067 231.743 274.4C230.926 283.44 232.56 292.533 232.137 301.6C231.743 310.853 229.367 320 230.161 329.067C230.926 338.293 234.936 347.467 235.701 356.533C236.495 365.707 234.119 374.933 232.931 379.467L231.743 384H246V379.44C246 374.853 246 365.6 246 356.533C246 347.44 246 338.4 246 329.067C246 320 246 310.933 246 301.6C246 292.56 246 283.467 246 274.4C246 265.147 246 256 246 246.933C246 237.707 246 228.533 246 219.467C246 210.293 246 201.067 246 192C246 182.853 246 173.6 246 164.533C246 155.44 246 146.4 246 137.067C246 128 246 118.933 246 109.6C246 100.56 246 91.4667 246 82.4C246 73.1467 246 64 246 54.9333C246 45.7067 246 36.5333 246 27.4667C246 18.2933 246 9.06667 246 4.53333V0L234.119 0Z"
                fill="#223DF9" />
            <path
                d="M113.881 0L114.274 4.56C114.698 9.14667 115.44 18.4 114.675 27.4667C113.881 36.56 111.505 45.6 109.923 54.9333C108.312 64 107.569 73.0667 107.94 82.4C108.312 91.44 109.945 100.533 111.898 109.6C113.881 118.853 116.257 128 115.069 137.067C113.881 146.293 109.128 155.467 109.128 164.533C109.128 173.707 113.881 182.933 115.069 192C116.257 201.147 113.881 210.4 112.299 219.467C110.688 228.56 109.945 237.6 111.111 246.933C112.321 256 115.44 265.067 116.257 274.4C117.074 283.44 115.44 292.533 115.863 301.6C116.257 310.853 118.633 320 117.839 329.067C117.074 338.293 113.064 347.467 112.299 356.533C111.505 365.707 113.881 374.933 115.069 379.467L116.257 384H102V379.44C102 374.853 102 365.6 102 356.533C102 347.44 102 338.4 102 329.067C102 320 102 310.933 102 301.6C102 292.56 102 283.467 102 274.4C102 265.147 102 256 102 246.933C102 237.707 102 228.533 102 219.467C102 210.293 102 201.067 102 192C102 182.853 102 173.6 102 164.533C102 155.44 102 146.4 102 137.067C102 128 102 118.933 102 109.6C102 100.56 102 91.4667 102 82.4C102 73.1467 102 64 102 54.9333C102 45.7067 102 36.5333 102 27.4667C102 18.2933 102 9.06667 102 4.53333V0L113.881 0Z"
                fill="#223DF9" />
            <path
                d="M90.1192 0L89.7257 4.56C89.3024 9.14667 88.5599 18.4 89.3247 27.4667C90.1192 36.56 92.4954 45.6 94.077 54.9333C95.6883 64 96.4309 73.0667 96.0596 82.4C95.6883 91.44 94.0547 100.533 92.1018 109.6C90.1192 118.853 87.7431 128 88.9311 137.067C90.1192 146.293 94.8715 155.467 94.8715 164.533C94.8715 173.707 90.1192 182.933 88.9311 192C87.7431 201.147 90.1192 210.4 91.7008 219.467C93.3122 228.56 94.0547 237.6 92.8889 246.933C91.6786 256 88.5599 265.067 87.7431 274.4C86.9263 283.44 88.5599 292.533 88.1366 301.6C87.7431 310.853 85.3669 320 86.1614 329.067C86.9263 338.293 90.936 347.467 91.7008 356.533C92.4954 365.707 90.1192 374.933 88.9311 379.467L87.7431 384H102V379.44C102 374.853 102 365.6 102 356.533C102 347.44 102 338.4 102 329.067C102 320 102 310.933 102 301.6C102 292.56 102 283.467 102 274.4C102 265.147 102 256 102 246.933C102 237.707 102 228.533 102 219.467C102 210.293 102 201.067 102 192C102 182.853 102 173.6 102 164.533C102 155.44 102 146.4 102 137.067C102 128 102 118.933 102 109.6C102 100.56 102 91.4667 102 82.4C102 73.1467 102 64 102 54.9333C102 45.7067 102 36.5333 102 27.4667C102 18.2933 102 9.06667 102 4.53333V0L90.1192 0Z"
                fill="#223DF9" />
        </g>
    </g>
    <defs>
        <clipPath id="clip0">
            <rect width="256" height="384" fill="white" />
        </clipPath>
        <clipPath id="clip1">
            <rect width="384" height="256" fill="white" transform="translate(256) rotate(90)" />
        </clipPath>
    </defs>
</svg>